<?xml version="1.0" encoding="UTF-8"?>
<svg id="Layer_1" data-name="Layer 1" xmlns="http://www.w3.org/2000/svg" viewBox="0 0 1080 1080">
  <defs>
    <style>
      .cls-1 {
        fill: #f7931a;
      }
    </style>
  </defs>
  <g id="Layer_1-2" data-name="Layer_1">
    <g id="_1421344023328" data-name=" 1421344023328">
      <path d="M1063.84,670.64c-72.13,289.32-365.16,465.4-654.52,393.25C120.09,991.76-55.99,698.71,16.17,409.41,88.27,120.06,381.31-56.03,670.57,16.1c289.33,72.13,465.4,365.21,393.26,654.55h0s0,0,0,0Z"/>
    </g>
  </g>
  <path class="cls-1" d="M919.8,567.12c12.23-12.12,20.2-29.89,15.46-53.43-4.04-19.73-20.66-36.24-39.93-37.97-12.69-1.15-23.66,2.19-35.31,8.42,0,0-30.58-17.77-72.01-41.89,38.66-22.5,75.48-43.85,103.98-60.36,6.58-3.92,17.77-11.54,27.81-21.35,12.23-12.12,20.2-29.89,15.46-53.43-4.04-19.73-20.66-36.24-39.93-37.97-12.69-1.15-23.66,2.19-35.31,8.42,0,0-296.48-172.53-300.05-174.49-3.58-2.08-7.39-3.92-12-4.15-5.19-.35-10.04,2.89-13.96,5.08-124.29,72.24-266.12,154.87-373.11,216.96-3.35,1.96-6.23,3.92-9.46,5.89-4.5,3-8.08,6.69-8.08,12.12s3.69,8.89,6.92,11.08c2.89,2.08,4.15,2.89,10.27,6.23,23.77,13.73,84.02,48.82,147.37,85.75-52.51,30.58-102.71,59.66-147.03,85.4-3.35,1.96-6.23,3.92-9.46,5.89-4.5,3-8.08,6.69-8.08,12.12s3.69,8.89,6.92,11.08c2.89,2.08,4.15,2.89,10.27,6.23,23.77,13.73,84.02,48.82,147.37,85.75-52.51,30.58-102.71,59.66-147.03,85.4-3.35,1.96-6.23,3.92-9.46,5.89-4.5,3-8.08,6.69-8.08,12.12s3.69,8.89,6.92,11.08c2.89,2.08,4.15,2.89,10.27,6.23,48.01,27.81,244.66,142.29,316.21,184.07,7.16,4.15,22.16,12.69,29.77,16.27,14.54,6.92,32.89,12.58,48.35,11.43,22.27-1.85,37.97-12.58,58.86-24.7,72.71-42.35,204.04-118.87,278.24-161.8,6.58-3.92,17.77-11.54,27.81-21.35,12.23-12.12,20.2-29.89,15.46-53.43-4.04-19.73-20.66-36.24-39.93-37.97-12.69-1.15-23.66,2.19-35.31,8.42,0,0-30.58-17.77-72.01-41.89,38.66-22.5,75.48-43.85,103.98-60.36,6.58-3.23,17.77-10.85,27.81-20.77ZM179.82,338.73c.12-3.69,1.85-5.65,4.39-7.16L538.27,125.81c5.89-3.46,13.16-3.46,19.16,0l281.82,163.88s-206.23,120.02-282.4,164.22c-6.12,3.58-18,10.96-22.27,14.54-5.54,4.62-9.58,10.62-11.54,18-3.92,15.12,3,26.89,11.19,31.39,12.12,6.69,21.81,1.85,21.81-4.39-9-3.35-11.43-10.73-10.04-18.23,1.15-6.69,6.23-11.77,14.54-13.04,12.12-1.85,22.85,5.65,25.85,21.23,2.89,15.12-2.65,28.04-12.69,35.2-20.2,14.66-46.51,7.04-64.86-3.58-16.62-9.69-262.2-152.45-324.64-188.92-2.31-1.38-4.5-3.58-4.39-7.39Zm659.43,364.22s-206.23,120.02-282.4,164.22c-6.12,3.58-18,10.96-22.27,14.54-5.54,4.62-9.58,10.62-11.54,18-3.92,15.12,3,26.89,11.19,31.39,12.12,6.69,21.81,1.85,21.81-4.39-9-3.35-11.43-10.73-10.04-18.23,1.15-6.69,6.23-11.77,14.54-13.04,12.12-1.85,22.85,5.65,25.85,21.23,2.89,15.12-2.65,28.04-12.69,35.2-20.2,14.66-46.51,7.04-64.86-3.58-16.62-9.69-262.2-152.45-324.64-188.92-2.54-1.5-4.62-3.69-4.62-7.5,.12-3.69,1.85-5.65,4.39-7.16l144.37-84.02c-6.92-4.04,111.94,65.09,148.07,86.21,7.16,4.15,22.16,12.69,29.77,16.27,14.54,6.92,32.89,12.58,48.35,11.43,22.27-1.85,37.97-12.58,58.86-24.7,44.78-26.08,160.18-93.25,153.37-89.32l72.47,42.35Zm-282.4-42.58c-6.12,3.58-18,10.96-22.27,14.54-5.54,4.62-9.58,10.62-11.54,18-3.92,15.12,3,26.89,11.19,31.39,12.12,6.69,21.81,1.85,21.81-4.39-9-3.35-11.43-10.73-10.04-18.23,1.15-6.69,6.23-11.77,14.54-13.04,12.12-1.85,22.85,5.65,25.85,21.23,2.89,15.12-2.65,28.04-12.69,35.2-20.2,14.66-46.51,7.04-64.86-3.58-16.62-9.69-262.2-152.45-324.64-188.92-2.54-1.5-4.62-3.69-4.62-7.5,.12-3.69,1.85-5.65,4.39-7.16l144.37-84.02c58.05,33.81,115.64,67.4,148.07,86.21,7.16,4.15,22.16,12.69,29.77,16.27,14.54,6.92,32.89,12.58,48.35,11.43,22.27-1.85,37.97-12.58,58.86-24.7,44.43-25.85,159.84-93.13,153.37-89.32l72.13,42.01c.35,.58-205.88,120.48-282.05,164.57Z"/>
</svg>