<?xml version="1.0" encoding="UTF-8"?>
<svg id="Layer_1" data-name="Layer 1" xmlns="http://www.w3.org/2000/svg" viewBox="0 0 1080 1080">
  <defs>
    <style>
      .cls-1 {
        fill: #f7931a;
      }

      .cls-2 {
        fill: #fff;
      }
    </style>
  </defs>
  <rect class="cls-1" width="1080" height="1080"/>
  <path class="cls-2" d="M869.63,563.53c10.62-10.52,17.53-25.94,13.42-46.37-3.51-17.13-17.93-31.45-34.66-32.95-11.02-1-20.53,1.9-30.65,7.31,0,0-26.54-15.42-62.5-36.36,33.55-19.53,65.5-38.06,90.24-52.38,5.71-3.41,15.42-10.02,24.14-18.53,10.62-10.52,17.53-25.94,13.42-46.37-3.51-17.13-17.93-31.45-34.66-32.95-11.02-1-20.53,1.9-30.65,7.31,0,0-257.31-149.74-260.42-151.44-3.1-1.8-6.41-3.41-10.42-3.61-4.51-.3-8.71,2.5-12.12,4.41-107.87,62.7-230.97,134.42-323.82,188.3-2.9,1.7-5.41,3.41-8.21,5.11-3.91,2.6-7.01,5.81-7.01,10.52s3.21,7.71,6.01,9.62c2.5,1.8,3.61,2.5,8.91,5.41,20.63,11.92,72.92,42.37,127.9,74.42-45.57,26.54-89.14,51.78-127.6,74.12-2.9,1.7-5.41,3.41-8.21,5.11-3.91,2.6-7.01,5.81-7.01,10.52s3.21,7.71,6.01,9.62c2.5,1.8,3.61,2.5,8.91,5.41,20.63,11.92,72.92,42.37,127.9,74.42-45.57,26.54-89.14,51.78-127.6,74.12-2.9,1.7-5.41,3.41-8.21,5.11-3.91,2.6-7.01,5.81-7.01,10.52s3.21,7.71,6.01,9.62c2.5,1.8,3.61,2.5,8.91,5.41,41.67,24.14,212.34,123.5,274.44,159.76,6.21,3.61,19.23,11.02,25.84,14.12,12.62,6.01,28.55,10.92,41.97,9.92,19.33-1.6,32.95-10.92,51.08-21.43,63.1-36.76,177.08-103.17,241.49-140.42,5.71-3.41,15.42-10.02,24.14-18.53,10.62-10.52,17.53-25.94,13.42-46.37-3.51-17.13-17.93-31.45-34.66-32.95-11.02-1-20.53,1.9-30.65,7.31,0,0-26.54-15.42-62.5-36.36,33.55-19.53,65.5-38.06,90.24-52.38,5.71-2.8,15.42-9.42,24.14-18.03ZM227.4,365.32c.1-3.21,1.6-4.91,3.81-6.21l307.29-178.59c5.11-3,11.42-3,16.63,0l244.59,142.23s-178.99,104.17-245.09,142.53c-5.31,3.1-15.63,9.52-19.33,12.62-4.81,4.01-8.31,9.21-10.02,15.63-3.41,13.12,2.6,23.34,9.72,27.24,10.52,5.81,18.93,1.6,18.93-3.81-7.81-2.9-9.92-9.31-8.71-15.83,1-5.81,5.41-10.22,12.62-11.32,10.52-1.6,19.83,4.91,22.44,18.43,2.5,13.12-2.3,24.34-11.02,30.55-17.53,12.72-40.36,6.11-56.29-3.1-14.42-8.41-227.56-132.31-281.75-163.96-2-1.2-3.91-3.11-3.81-6.41Zm572.32,316.11s-178.99,104.17-245.09,142.53c-5.31,3.1-15.63,9.52-19.33,12.62-4.81,4.01-8.31,9.21-10.02,15.62-3.41,13.12,2.6,23.34,9.72,27.24,10.52,5.81,18.93,1.6,18.93-3.81-7.81-2.9-9.92-9.31-8.71-15.83,1-5.81,5.41-10.22,12.62-11.32,10.52-1.6,19.83,4.91,22.44,18.43,2.5,13.12-2.3,24.34-11.02,30.55-17.53,12.72-40.36,6.11-56.29-3.1-14.42-8.41-227.56-132.31-281.75-163.96-2.2-1.3-4.01-3.21-4.01-6.51,.1-3.21,1.6-4.91,3.81-6.21l125.3-72.92c-6.01-3.51,97.16,56.49,128.51,74.82,6.21,3.61,19.23,11.02,25.84,14.12,12.62,6.01,28.55,10.92,41.97,9.92,19.33-1.6,32.95-10.92,51.08-21.43,38.86-22.64,139.02-80.93,133.11-77.52l62.9,36.76Zm-245.09-36.96c-5.31,3.1-15.63,9.52-19.33,12.62-4.81,4.01-8.31,9.21-10.02,15.62-3.41,13.12,2.6,23.34,9.72,27.24,10.52,5.81,18.93,1.6,18.93-3.81-7.81-2.9-9.92-9.31-8.71-15.83,1-5.81,5.41-10.22,12.62-11.32,10.52-1.6,19.83,4.91,22.44,18.43,2.5,13.12-2.3,24.34-11.02,30.55-17.53,12.72-40.36,6.11-56.29-3.1-14.42-8.41-227.56-132.31-281.75-163.96-2.2-1.3-4.01-3.21-4.01-6.51,.1-3.21,1.6-4.91,3.81-6.21l125.3-72.92c50.38,29.35,100.36,58.49,128.51,74.82,6.21,3.61,19.23,11.02,25.84,14.12,12.62,6.01,28.55,10.92,41.97,9.92,19.33-1.6,32.95-10.92,51.08-21.43,38.56-22.44,138.72-80.83,133.11-77.52l62.6,36.46c.3,.5-178.69,104.57-244.79,142.83Z"/>
</svg>