<?xml version="1.0" encoding="UTF-8"?>
<svg id="Layer_1" data-name="Layer 1" xmlns="http://www.w3.org/2000/svg" viewBox="0 0 1080 1080">
  <defs>
    <style>
      .cls-1 {
        fill: #f7931a;
      }

      .cls-2 {
        fill: #fff;
      }
    </style>
  </defs>
  <rect class="cls-1" width="1080" height="1080"/>
  <path class="cls-2" d="M947.95,569.13c13.14-13.02,21.69-32.11,16.61-57.39-4.34-21.2-22.19-38.92-42.89-40.78-13.64-1.24-25.41,2.36-37.93,9.05,0,0-32.85-19.09-77.35-45,41.53-24.17,81.07-47.1,111.69-64.83,7.07-4.21,19.09-12.4,29.87-22.93,13.14-13.02,21.69-32.11,16.61-57.39-4.34-21.2-22.19-38.92-42.89-40.78-13.64-1.24-25.41,2.36-37.93,9.05,0,0-318.45-185.32-322.29-187.42-3.84-2.23-7.93-4.21-12.89-4.46-5.58-.37-10.78,3.1-15,5.45-133.5,77.6-285.85,166.35-400.76,233.04-3.59,2.11-6.69,4.21-10.16,6.32-4.83,3.22-8.68,7.19-8.68,13.02s3.97,9.54,7.44,11.9c3.1,2.23,4.46,3.1,11.03,6.69,25.54,14.75,90.24,52.43,158.29,92.1-56.4,32.85-110.32,64.09-157.92,91.73-3.59,2.11-6.69,4.21-10.16,6.32-4.83,3.22-8.68,7.19-8.68,13.02s3.97,9.54,7.44,11.9c3.1,2.23,4.46,3.1,11.03,6.69,25.54,14.75,90.24,52.43,158.29,92.1-56.4,32.85-110.32,64.09-157.92,91.73-3.59,2.11-6.69,4.21-10.16,6.32-4.83,3.22-8.68,7.19-8.68,13.02s3.97,9.54,7.44,11.9c3.1,2.23,4.46,3.1,11.03,6.69,51.57,29.87,262.79,152.84,339.64,197.71,7.69,4.46,23.8,13.64,31.98,17.48,15.62,7.44,35.33,13.51,51.94,12.27,23.92-1.98,40.78-13.51,63.22-26.53,78.09-45.49,219.16-127.68,298.86-173.79,7.07-4.21,19.09-12.4,29.87-22.93,13.14-13.02,21.69-32.11,16.61-57.39-4.34-21.2-22.19-38.92-42.89-40.78-13.64-1.24-25.41,2.36-37.93,9.05,0,0-32.85-19.09-77.35-45,41.53-24.17,81.07-47.1,111.69-64.83,7.07-3.47,19.09-11.65,29.87-22.31ZM153.13,323.81c.12-3.97,1.98-6.07,4.71-7.69L538.14,95.11c6.32-3.72,14.13-3.72,20.58,0l302.71,176.02s-221.51,128.92-303.33,176.39c-6.57,3.84-19.34,11.78-23.92,15.62-5.95,4.96-10.29,11.4-12.4,19.34-4.21,16.24,3.22,28.88,12.02,33.72,13.02,7.19,23.43,1.98,23.43-4.71-9.67-3.59-12.27-11.53-10.78-19.59,1.24-7.19,6.69-12.64,15.62-14.01,13.02-1.98,24.54,6.07,27.77,22.81,3.1,16.24-2.85,30.12-13.64,37.81-21.69,15.74-49.96,7.56-69.66-3.84-17.85-10.41-281.63-163.75-348.69-202.92-2.48-1.49-4.83-3.84-4.71-7.93Zm708.3,391.21s-221.51,128.92-303.33,176.39c-6.57,3.84-19.34,11.78-23.92,15.62-5.95,4.96-10.29,11.4-12.4,19.34-4.21,16.24,3.22,28.88,12.02,33.72,13.02,7.19,23.43,1.98,23.43-4.71-9.67-3.59-12.27-11.53-10.78-19.59,1.24-7.19,6.69-12.64,15.62-14.01,13.02-1.98,24.54,6.07,27.77,22.81,3.1,16.24-2.85,30.12-13.64,37.81-21.69,15.74-49.96,7.56-69.66-3.84-17.85-10.41-281.63-163.75-348.69-202.92-2.73-1.61-4.96-3.97-4.96-8.06,.12-3.97,1.98-6.07,4.71-7.69l155.07-90.24c-7.44-4.34,120.24,69.91,159.04,92.6,7.69,4.46,23.8,13.64,31.98,17.48,15.62,7.44,35.33,13.51,51.94,12.27,23.92-1.98,40.78-13.51,63.22-26.53,48.1-28.01,172.05-100.16,164.74-95.94l77.85,45.49Zm-303.33-45.74c-6.57,3.84-19.34,11.78-23.92,15.62-5.95,4.96-10.29,11.4-12.4,19.34-4.21,16.24,3.22,28.88,12.02,33.72,13.02,7.19,23.43,1.98,23.43-4.71-9.67-3.59-12.27-11.53-10.78-19.59,1.24-7.19,6.69-12.64,15.62-14.01,13.02-1.98,24.54,6.07,27.77,22.81,3.1,16.24-2.85,30.12-13.64,37.81-21.69,15.74-49.96,7.56-69.66-3.84-17.85-10.41-281.63-163.75-348.69-202.92-2.73-1.61-4.96-3.97-4.96-8.06,.12-3.97,1.98-6.07,4.71-7.69l155.07-90.24c62.35,36.32,124.21,72.39,159.04,92.6,7.69,4.46,23.8,13.64,31.98,17.48,15.62,7.44,35.33,13.51,51.94,12.27,23.92-1.98,40.78-13.51,63.22-26.53,47.72-27.77,171.68-100.03,164.74-95.94l77.47,45.12c.37,.62-221.14,129.41-302.95,176.76Z"/>
</svg>